<?xml version="1.0" encoding="UTF-8" standalone="no"?>
<!DOCTYPE svg PUBLIC "-//W3C//DTD SVG 1.1//EN"
 "http://www.w3.org/Graphics/SVG/1.1/DTD/svg11.dtd">
<!-- Generated by graphviz version 2.38.0 (20140413.2041)
 -->
<!-- Title: G Pages: 1 -->
<svg width="431pt" height="366pt"
 viewBox="0.00 0.00 431.19 366.00" xmlns="http://www.w3.org/2000/svg" xmlns:xlink="http://www.w3.org/1999/xlink">
<g id="graph0" class="graph" transform="scale(1 1) rotate(0) translate(4 362)">
<title>G</title>
<polygon fill="white" stroke="none" points="-4,4 -4,-362 427.19,-362 427.19,4 -4,4"/>
<g id="clust1" class="cluster"><title>cluster_Global</title>
<path fill="none" stroke="gray" d="M185.19,-8C185.19,-8 403.19,-8 403.19,-8 409.19,-8 415.19,-14 415.19,-20 415.19,-20 415.19,-338 415.19,-338 415.19,-344 409.19,-350 403.19,-350 403.19,-350 185.19,-350 185.19,-350 179.19,-350 173.19,-344 173.19,-338 173.19,-338 173.19,-20 173.19,-20 173.19,-14 179.19,-8 185.19,-8"/>
<text text-anchor="middle" x="294.19" y="-337.2" font-family="Times,serif" font-size="11.00" fill="gray">Global</text>
</g>
<!-- \\GPhpThreadException -->
<g id="node1" class="node"><title>\\GPhpThreadException</title>
<polygon fill="none" stroke="black" points="366.69,-322 221.69,-322 221.69,-286 366.69,-286 366.69,-322"/>
<text text-anchor="middle" x="294.19" y="-301.2" font-family="Courier,monospace" font-size="11.00">GPhpThreadException</text>
</g>
<!-- \\Exception -->
<g id="node7" class="node"><title>\\Exception</title>
<ellipse fill="none" stroke="black" cx="54.5952" cy="-304" rx="48.9926" ry="18"/>
<text text-anchor="middle" x="54.5952" y="-300.3" font-family="Times,serif" font-size="14.00" fill="gray">\Exception</text>
</g>
<!-- \\GPhpThreadException&#45;&gt;\\Exception -->
<g id="edge1" class="edge"><title>\\GPhpThreadException&#45;&gt;\\Exception</title>
<path fill="none" stroke="black" d="M221.582,-304C187.06,-304 146.189,-304 113.642,-304"/>
<polygon fill="none" stroke="black" points="113.386,-300.5 103.386,-304 113.386,-307.5 113.386,-300.5"/>
</g>
<!-- \\GPhpThreadIntercom -->
<g id="node2" class="node"><title>\\GPhpThreadIntercom</title>
<polygon fill="none" stroke="black" points="363.19,-268 225.19,-268 225.19,-232 363.19,-232 363.19,-268"/>
<text text-anchor="middle" x="294.19" y="-247.2" font-family="Courier,monospace" font-size="11.00">GPhpThreadIntercom</text>
</g>
<!-- \\GPhpThreadCriticalSection -->
<g id="node3" class="node"><title>\\GPhpThreadCriticalSection</title>
<polygon fill="none" stroke="black" points="386.69,-214 201.69,-214 201.69,-178 386.69,-178 386.69,-214"/>
<text text-anchor="middle" x="294.19" y="-193.2" font-family="Courier,monospace" font-size="11.00">GPhpThreadCriticalSection</text>
</g>
<!-- \\GPhpThreadNotCloneableContainer -->
<g id="node4" class="node"><title>\\GPhpThreadNotCloneableContainer</title>
<polygon fill="none" stroke="black" points="407.19,-160 181.19,-160 181.19,-124 407.19,-124 407.19,-160"/>
<text text-anchor="middle" x="294.19" y="-139.2" font-family="Courier,monospace" font-size="11.00">GPhpThreadNotCloneableContainer</text>
</g>
<!-- \\Serializable -->
<g id="node8" class="node"><title>\\Serializable</title>
<ellipse fill="none" stroke="black" cx="54.5952" cy="-115" rx="54.6905" ry="18"/>
<text text-anchor="middle" x="54.5952" y="-111.3" font-family="Times,serif" font-size="14.00" fill="gray">\Serializable</text>
</g>
<!-- \\GPhpThreadNotCloneableContainer&#45;&gt;\\Serializable -->
<g id="edge2" class="edge"><title>\\GPhpThreadNotCloneableContainer&#45;&gt;\\Serializable</title>
<path fill="none" stroke="black" stroke-dasharray="1,5" d="M181.002,-129.251C158.8,-126.728 136.288,-124.17 116.582,-121.93"/>
<polygon fill="none" stroke="black" points="116.881,-118.442 106.55,-120.79 116.091,-125.397 116.881,-118.442"/>
</g>
<!-- \\GPhpThreadLockGuard -->
<g id="node5" class="node"><title>\\GPhpThreadLockGuard</title>
<polygon fill="none" stroke="black" points="366.69,-106 221.69,-106 221.69,-70 366.69,-70 366.69,-106"/>
<text text-anchor="middle" x="294.19" y="-85.2" font-family="Courier,monospace" font-size="11.00">GPhpThreadLockGuard</text>
</g>
<!-- \\GPhpThreadLockGuard&#45;&gt;\\Serializable -->
<g id="edge3" class="edge"><title>\\GPhpThreadLockGuard&#45;&gt;\\Serializable</title>
<path fill="none" stroke="black" stroke-dasharray="1,5" d="M221.582,-96.1375C188.046,-99.9485 148.519,-104.44 116.452,-108.084"/>
<polygon fill="none" stroke="black" points="115.86,-104.629 106.319,-109.236 116.651,-111.584 115.86,-104.629"/>
</g>
<!-- \\GPhpThread -->
<g id="node6" class="node"><title>\\GPhpThread</title>
<polygon fill="none" stroke="black" points="336.19,-52 252.19,-52 252.19,-16 336.19,-16 336.19,-52"/>
<text text-anchor="start" x="260.19" y="-37.2" font-family="Courier,monospace" font-size="11.00">«abstract»</text>
<text text-anchor="start" x="260.19" y="-25.2" font-family="Courier,monospace" font-size="11.00">GPhpThread</text>
</g>
</g>
</svg>
