<?xml version="1.0" encoding="UTF-8" standalone="no"?>
<!DOCTYPE svg PUBLIC "-//W3C//DTD SVG 1.1//EN"
 "http://www.w3.org/Graphics/SVG/1.1/DTD/svg11.dtd">
<!-- Generated by graphviz version 2.38.0 (20140413.2041)
 -->
<!-- Title: G Pages: 1 -->
<svg width="424pt" height="366pt"
 viewBox="0.00 0.00 424.19 366.00" xmlns="http://www.w3.org/2000/svg" xmlns:xlink="http://www.w3.org/1999/xlink">
<g id="graph0" class="graph" transform="scale(1 1) rotate(0) translate(4 362)">
<title>G</title>
<polygon fill="white" stroke="none" points="-4,4 -4,-362 420.19,-362 420.19,4 -4,4"/>
<g id="clust1" class="cluster"><title>cluster_Global</title>
<path fill="none" stroke="gray" d="M185.19,-8C185.19,-8 396.19,-8 396.19,-8 402.19,-8 408.19,-14 408.19,-20 408.19,-20 408.19,-338 408.19,-338 408.19,-344 402.19,-350 396.19,-350 396.19,-350 185.19,-350 185.19,-350 179.19,-350 173.19,-344 173.19,-338 173.19,-338 173.19,-20 173.19,-20 173.19,-14 179.19,-8 185.19,-8"/>
<text text-anchor="middle" x="290.69" y="-337.2" font-family="Times,serif" font-size="11.00" fill="gray">Global</text>
</g>
<!-- \\GPhpThreadException -->
<g id="node1" class="node"><title>\\GPhpThreadException</title>
<polygon fill="none" stroke="black" points="363.19,-322 218.19,-322 218.19,-286 363.19,-286 363.19,-322"/>
<text text-anchor="middle" x="290.69" y="-301.2" font-family="Courier,monospace" font-size="11.00">GPhpThreadException</text>
</g>
<!-- \\Exception -->
<g id="node7" class="node"><title>\\Exception</title>
<ellipse fill="none" stroke="black" cx="54.5952" cy="-304" rx="48.9926" ry="18"/>
<text text-anchor="middle" x="54.5952" y="-300.3" font-family="Times,serif" font-size="14.00" fill="gray">\Exception</text>
</g>
<!-- \\GPhpThreadException&#45;&gt;\\Exception -->
<g id="edge1" class="edge"><title>\\GPhpThreadException&#45;&gt;\\Exception</title>
<path fill="none" stroke="black" d="M218.182,-304C184.72,-304 145.374,-304 113.77,-304"/>
<polygon fill="none" stroke="black" points="113.369,-300.5 103.369,-304 113.369,-307.5 113.369,-300.5"/>
</g>
<!-- \\GPhpThreadIntercom -->
<g id="node2" class="node"><title>\\GPhpThreadIntercom</title>
<polygon fill="none" stroke="black" points="359.69,-268 221.69,-268 221.69,-232 359.69,-232 359.69,-268"/>
<text text-anchor="middle" x="290.69" y="-247.2" font-family="Courier,monospace" font-size="11.00">GPhpThreadIntercom</text>
</g>
<!-- \\GPhpThreadCriticalSection -->
<g id="node3" class="node"><title>\\GPhpThreadCriticalSection</title>
<polygon fill="none" stroke="black" points="383.19,-214 198.19,-214 198.19,-178 383.19,-178 383.19,-214"/>
<text text-anchor="middle" x="290.69" y="-193.2" font-family="Courier,monospace" font-size="11.00">GPhpThreadCriticalSection</text>
</g>
<!-- \\GPhpThreadUncloneableContainer -->
<g id="node4" class="node"><title>\\GPhpThreadUncloneableContainer</title>
<polygon fill="none" stroke="black" points="400.19,-160 181.19,-160 181.19,-124 400.19,-124 400.19,-160"/>
<text text-anchor="middle" x="290.69" y="-139.2" font-family="Courier,monospace" font-size="11.00">GPhpThreadUncloneableContainer</text>
</g>
<!-- \\Serializable -->
<g id="node8" class="node"><title>\\Serializable</title>
<ellipse fill="none" stroke="black" cx="54.5952" cy="-115" rx="54.6905" ry="18"/>
<text text-anchor="middle" x="54.5952" y="-111.3" font-family="Times,serif" font-size="14.00" fill="gray">\Serializable</text>
</g>
<!-- \\GPhpThreadUncloneableContainer&#45;&gt;\\Serializable -->
<g id="edge2" class="edge"><title>\\GPhpThreadUncloneableContainer&#45;&gt;\\Serializable</title>
<path fill="none" stroke="black" stroke-dasharray="1,5" d="M180.867,-129.449C158.701,-126.892 136.141,-124.29 116.385,-122.011"/>
<polygon fill="none" stroke="black" points="116.662,-118.52 106.327,-120.851 115.86,-125.474 116.662,-118.52"/>
</g>
<!-- \\GPhpThreadLockGuard -->
<g id="node5" class="node"><title>\\GPhpThreadLockGuard</title>
<polygon fill="none" stroke="black" points="363.19,-106 218.19,-106 218.19,-70 363.19,-70 363.19,-106"/>
<text text-anchor="middle" x="290.69" y="-85.2" font-family="Courier,monospace" font-size="11.00">GPhpThreadLockGuard</text>
</g>
<!-- \\GPhpThreadLockGuard&#45;&gt;\\Serializable -->
<g id="edge3" class="edge"><title>\\GPhpThreadLockGuard&#45;&gt;\\Serializable</title>
<path fill="none" stroke="black" stroke-dasharray="1,5" d="M218.182,-96.2476C185.686,-99.9956 147.642,-104.384 116.528,-107.972"/>
<polygon fill="none" stroke="black" points="115.793,-104.534 106.26,-109.156 116.595,-111.488 115.793,-104.534"/>
</g>
<!-- \\GPhpThread -->
<g id="node6" class="node"><title>\\GPhpThread</title>
<polygon fill="none" stroke="black" points="332.69,-52 248.69,-52 248.69,-16 332.69,-16 332.69,-52"/>
<text text-anchor="start" x="256.69" y="-37.2" font-family="Courier,monospace" font-size="11.00">«abstract»</text>
<text text-anchor="start" x="256.69" y="-25.2" font-family="Courier,monospace" font-size="11.00">GPhpThread</text>
</g>
</g>
</svg>
