<?xml version="1.0" encoding="UTF-8" standalone="no"?>
<!DOCTYPE svg PUBLIC "-//W3C//DTD SVG 1.1//EN"
 "http://www.w3.org/Graphics/SVG/1.1/DTD/svg11.dtd">
<!-- Generated by graphviz version 2.38.0 (20140413.2041)
 -->
<!-- Title: G Pages: 1 -->
<svg width="378pt" height="258pt"
 viewBox="0.00 0.00 378.49 258.00" xmlns="http://www.w3.org/2000/svg" xmlns:xlink="http://www.w3.org/1999/xlink">
<g id="graph0" class="graph" transform="scale(1 1) rotate(0) translate(4 254)">
<title>G</title>
<polygon fill="white" stroke="none" points="-4,4 -4,-254 374.491,-254 374.491,4 -4,4"/>
<g id="clust1" class="cluster"><title>cluster_Global</title>
<path fill="none" stroke="gray" d="M173.491,-8C173.491,-8 350.491,-8 350.491,-8 356.491,-8 362.491,-14 362.491,-20 362.491,-20 362.491,-230 362.491,-230 362.491,-236 356.491,-242 350.491,-242 350.491,-242 173.491,-242 173.491,-242 167.491,-242 161.491,-236 161.491,-230 161.491,-230 161.491,-20 161.491,-20 161.491,-14 167.491,-8 173.491,-8"/>
<text text-anchor="middle" x="261.991" y="-229.2" font-family="Times,serif" font-size="11.00" fill="gray">Global</text>
</g>
<!-- \\GPhpThreadException -->
<g id="node1" class="node"><title>\\GPhpThreadException</title>
<polygon fill="none" stroke="black" points="334.491,-214 189.491,-214 189.491,-178 334.491,-178 334.491,-214"/>
<text text-anchor="middle" x="261.991" y="-193.2" font-family="Courier,monospace" font-size="11.00">GPhpThreadException</text>
</g>
<!-- \\Exception -->
<g id="node5" class="node"><title>\\Exception</title>
<ellipse fill="none" stroke="black" cx="48.7457" cy="-196" rx="48.9926" ry="18"/>
<text text-anchor="middle" x="48.7457" y="-192.3" font-family="Times,serif" font-size="14.00" fill="gray">\Exception</text>
</g>
<!-- \\GPhpThreadException&#45;&gt;\\Exception -->
<g id="edge1" class="edge"><title>\\GPhpThreadException&#45;&gt;\\Exception</title>
<path fill="none" stroke="black" d="M189.473,-196C162.857,-196 133.005,-196 107.747,-196"/>
<polygon fill="none" stroke="black" points="107.59,-192.5 97.5898,-196 107.59,-199.5 107.59,-192.5"/>
</g>
<!-- \\GPhpThreadIntercom -->
<g id="node2" class="node"><title>\\GPhpThreadIntercom</title>
<polygon fill="none" stroke="black" points="330.991,-160 192.991,-160 192.991,-124 330.991,-124 330.991,-160"/>
<text text-anchor="middle" x="261.991" y="-139.2" font-family="Courier,monospace" font-size="11.00">GPhpThreadIntercom</text>
</g>
<!-- \\GPhpThreadCriticalSection -->
<g id="node3" class="node"><title>\\GPhpThreadCriticalSection</title>
<polygon fill="none" stroke="black" points="354.491,-106 169.491,-106 169.491,-70 354.491,-70 354.491,-106"/>
<text text-anchor="middle" x="261.991" y="-85.2" font-family="Courier,monospace" font-size="11.00">GPhpThreadCriticalSection</text>
</g>
<!-- \\GPhpThread -->
<g id="node4" class="node"><title>\\GPhpThread</title>
<polygon fill="none" stroke="black" points="303.991,-52 219.991,-52 219.991,-16 303.991,-16 303.991,-52"/>
<text text-anchor="start" x="227.991" y="-37.2" font-family="Courier,monospace" font-size="11.00">«abstract»</text>
<text text-anchor="start" x="227.991" y="-25.2" font-family="Courier,monospace" font-size="11.00">GPhpThread</text>
</g>
</g>
</svg>
