<?xml version="1.0" encoding="UTF-8" standalone="no"?>
<!DOCTYPE svg PUBLIC "-//W3C//DTD SVG 1.1//EN"
 "http://www.w3.org/Graphics/SVG/1.1/DTD/svg11.dtd">
<!-- Generated by graphviz version 2.40.1 (0)
 -->
<!-- Title: G Pages: 1 -->
<svg width="469pt" height="366pt"
 viewBox="0.00 0.00 469.29 366.00" xmlns="http://www.w3.org/2000/svg" xmlns:xlink="http://www.w3.org/1999/xlink">
<g id="graph0" class="graph" transform="scale(1 1) rotate(0) translate(4 362)">
<title>G</title>
<polygon fill="#ffffff" stroke="transparent" points="-4,4 -4,-362 465.2884,-362 465.2884,4 -4,4"/>
<g id="clust1" class="cluster">
<title>cluster_Global</title>
<path fill="none" stroke="#c0c0c0" d="M20,-8C20,-8 441.2884,-8 441.2884,-8 447.2884,-8 453.2884,-14 453.2884,-20 453.2884,-20 453.2884,-338 453.2884,-338 453.2884,-344 447.2884,-350 441.2884,-350 441.2884,-350 20,-350 20,-350 14,-350 8,-344 8,-338 8,-338 8,-20 8,-20 8,-14 14,-8 20,-8"/>
<text text-anchor="middle" x="230.6442" y="-337.2" font-family="Times,serif" font-size="11.00" fill="#c0c0c0">Global</text>
</g>
<!-- \\GPhpThreadException -->
<g id="node1" class="node">
<title>\\GPhpThreadException</title>
<polygon fill="none" stroke="#000000" points="404.7884,-322 259.7884,-322 259.7884,-286 404.7884,-286 404.7884,-322"/>
<text text-anchor="middle" x="332.2884" y="-301.2" font-family="Courier,monospace" font-size="11.00" fill="#000000">GPhpThreadException</text>
</g>
<!-- Exception -->
<g id="node7" class="node">
<title>Exception</title>
<ellipse fill="none" stroke="#000000" cx="81.6442" cy="-304" rx="57.3905" ry="18"/>
<text text-anchor="middle" x="81.6442" y="-300.3" font-family="Times,serif" font-size="14.00" fill="#c0c0c0">Exception</text>
</g>
<!-- \\GPhpThreadException&#45;&gt;Exception -->
<g id="edge1" class="edge">
<title>\\GPhpThreadException&#45;&gt;Exception</title>
<path fill="none" stroke="#000000" d="M259.455,-304C224.7433,-304 183.4744,-304 149.4366,-304"/>
<polygon fill="none" stroke="#000000" points="149.1206,-300.5001 139.1206,-304 149.1206,-307.5001 149.1206,-300.5001"/>
</g>
<!-- \\GPhpThreadIntercom -->
<g id="node2" class="node">
<title>\\GPhpThreadIntercom</title>
<polygon fill="none" stroke="#000000" points="401.2884,-268 263.2884,-268 263.2884,-232 401.2884,-232 401.2884,-268"/>
<text text-anchor="middle" x="332.2884" y="-247.2" font-family="Courier,monospace" font-size="11.00" fill="#000000">GPhpThreadIntercom</text>
</g>
<!-- \\GPhpThreadCriticalSection -->
<g id="node3" class="node">
<title>\\GPhpThreadCriticalSection</title>
<polygon fill="none" stroke="#000000" points="424.7884,-214 239.7884,-214 239.7884,-178 424.7884,-178 424.7884,-214"/>
<text text-anchor="middle" x="332.2884" y="-193.2" font-family="Courier,monospace" font-size="11.00" fill="#000000">GPhpThreadCriticalSection</text>
</g>
<!-- \\GPhpThreadNotCloneableContainer -->
<g id="node4" class="node">
<title>\\GPhpThreadNotCloneableContainer</title>
<polygon fill="none" stroke="#000000" points="445.2884,-160 219.2884,-160 219.2884,-124 445.2884,-124 445.2884,-160"/>
<text text-anchor="middle" x="332.2884" y="-139.2" font-family="Courier,monospace" font-size="11.00" fill="#000000">GPhpThreadNotCloneableContainer</text>
</g>
<!-- Serializable -->
<g id="node8" class="node">
<title>Serializable</title>
<ellipse fill="none" stroke="#000000" cx="81.6442" cy="-115" rx="65.7887" ry="18"/>
<text text-anchor="middle" x="81.6442" y="-111.3" font-family="Times,serif" font-size="14.00" fill="#c0c0c0">Serializable</text>
</g>
<!-- \\GPhpThreadNotCloneableContainer&#45;&gt;Serializable -->
<g id="edge2" class="edge">
<title>\\GPhpThreadNotCloneableContainer&#45;&gt;Serializable</title>
<path fill="none" stroke="#000000" stroke-dasharray="1,5" d="M219.0656,-129.8034C196.6473,-127.3884 173.7078,-124.9173 153.1526,-122.7031"/>
<polygon fill="none" stroke="#000000" points="153.2697,-119.1955 142.9524,-121.6043 152.52,-126.1553 153.2697,-119.1955"/>
</g>
<!-- \\GPhpThreadLockGuard -->
<g id="node5" class="node">
<title>\\GPhpThreadLockGuard</title>
<polygon fill="none" stroke="#000000" points="404.7884,-106 259.7884,-106 259.7884,-70 404.7884,-70 404.7884,-106"/>
<text text-anchor="middle" x="332.2884" y="-85.2" font-family="Courier,monospace" font-size="11.00" fill="#000000">GPhpThreadLockGuard</text>
</g>
<!-- \\GPhpThreadLockGuard&#45;&gt;Serializable -->
<g id="edge3" class="edge">
<title>\\GPhpThreadLockGuard&#45;&gt;Serializable</title>
<path fill="none" stroke="#000000" stroke-dasharray="1,5" d="M259.455,-95.8458C225.9222,-99.458 186.27,-103.7295 152.9291,-107.321"/>
<polygon fill="none" stroke="#000000" points="152.3659,-103.8613 142.7983,-108.4123 153.1157,-110.8211 152.3659,-103.8613"/>
</g>
<!-- \\GPhpThread -->
<g id="node6" class="node">
<title>\\GPhpThread</title>
<polygon fill="none" stroke="#000000" points="374.2884,-52 290.2884,-52 290.2884,-16 374.2884,-16 374.2884,-52"/>
<text text-anchor="start" x="298.2884" y="-37.2" font-family="Courier,monospace" font-size="11.00" fill="#000000">«abstract»</text>
<text text-anchor="start" x="298.2884" y="-25.2" font-family="Courier,monospace" font-size="11.00" fill="#000000">GPhpThread</text>
</g>
</g>
</svg>
