<?xml version="1.0" encoding="UTF-8" standalone="no"?>
<!DOCTYPE svg PUBLIC "-//W3C//DTD SVG 1.1//EN"
 "http://www.w3.org/Graphics/SVG/1.1/DTD/svg11.dtd">
<!-- Generated by graphviz version 2.40.1 (20161225.0304)
 -->
<!-- Title: G Pages: 1 -->
<svg width="435pt" height="367pt"
 viewBox="0.00 0.00 435.17 367.00" xmlns="http://www.w3.org/2000/svg" xmlns:xlink="http://www.w3.org/1999/xlink">
<g id="graph0" class="graph" transform="scale(1 1) rotate(0) translate(4 363)">
<title>G</title>
<polygon fill="#ffffff" stroke="transparent" points="-4,4 -4,-363 431.1659,-363 431.1659,4 -4,4"/>
<g id="clust1" class="cluster">
<title>cluster_Global</title>
<path fill="none" stroke="#c0c0c0" d="M194.6,-8C194.6,-8 407.1659,-8 407.1659,-8 413.1659,-8 419.1659,-14 419.1659,-20 419.1659,-20 419.1659,-339 419.1659,-339 419.1659,-345 413.1659,-351 407.1659,-351 407.1659,-351 194.6,-351 194.6,-351 188.6,-351 182.6,-345 182.6,-339 182.6,-339 182.6,-20 182.6,-20 182.6,-14 188.6,-8 194.6,-8"/>
<text text-anchor="middle" x="300.8829" y="-337.1" font-family="Times,serif" font-size="11.00" fill="#c0c0c0">Global</text>
</g>
<!-- \\GPhpThreadException -->
<g id="node1" class="node">
<title>\\GPhpThreadException</title>
<polygon fill="none" stroke="#000000" points="371.7625,-322 230.0033,-322 230.0033,-286 371.7625,-286 371.7625,-322"/>
<text text-anchor="middle" x="300.8829" y="-300.7" font-family="Courier,monospace" font-size="11.00" fill="#000000">GPhpThreadException</text>
</g>
<!-- \\Exception -->
<g id="node7" class="node">
<title>\\Exception</title>
<ellipse fill="none" stroke="#000000" cx="59.3" cy="-304" rx="52.7488" ry="18"/>
<text text-anchor="middle" x="59.3" y="-299.8" font-family="Times,serif" font-size="14.00" fill="#c0c0c0">\Exception</text>
</g>
<!-- \\GPhpThreadException&#45;&gt;\\Exception -->
<g id="edge1" class="edge">
<title>\\GPhpThreadException&#45;&gt;\\Exception</title>
<path fill="none" stroke="#000000" d="M230.0324,-304C196.1122,-304 155.8148,-304 122.8898,-304"/>
<polygon fill="none" stroke="#000000" points="122.4764,-300.5001 112.4764,-304 122.4763,-307.5001 122.4764,-300.5001"/>
</g>
<!-- \\GPhpThreadIntercom -->
<g id="node2" class="node">
<title>\\GPhpThreadIntercom</title>
<polygon fill="none" stroke="#000000" points="368.1633,-268 233.6025,-268 233.6025,-232 368.1633,-232 368.1633,-268"/>
<text text-anchor="middle" x="300.8829" y="-246.7" font-family="Courier,monospace" font-size="11.00" fill="#000000">GPhpThreadIntercom</text>
</g>
<!-- \\GPhpThreadCriticalSection -->
<g id="node3" class="node">
<title>\\GPhpThreadCriticalSection</title>
<polygon fill="none" stroke="#000000" points="391.3554,-214 210.4104,-214 210.4104,-178 391.3554,-178 391.3554,-214"/>
<text text-anchor="middle" x="300.8829" y="-192.7" font-family="Courier,monospace" font-size="11.00" fill="#000000">GPhpThreadCriticalSection</text>
</g>
<!-- \\GPhpThreadNotCloneableContainer -->
<g id="node4" class="node">
<title>\\GPhpThreadNotCloneableContainer</title>
<polygon fill="none" stroke="#000000" points="410.9492,-160 190.8166,-160 190.8166,-124 410.9492,-124 410.9492,-160"/>
<text text-anchor="middle" x="300.8829" y="-138.7" font-family="Courier,monospace" font-size="11.00" fill="#000000">GPhpThreadNotCloneableContainer</text>
</g>
<!-- \\Serializable -->
<g id="node8" class="node">
<title>\\Serializable</title>
<ellipse fill="none" stroke="#000000" cx="59.3" cy="-115" rx="59.1006" ry="18"/>
<text text-anchor="middle" x="59.3" y="-110.8" font-family="Times,serif" font-size="14.00" fill="#c0c0c0">\Serializable</text>
</g>
<!-- \\GPhpThreadNotCloneableContainer&#45;&gt;\\Serializable -->
<g id="edge2" class="edge">
<title>\\GPhpThreadNotCloneableContainer&#45;&gt;\\Serializable</title>
<path fill="none" stroke="#000000" stroke-dasharray="1,5" d="M190.6957,-129.6852C168.3397,-127.1866 145.4954,-124.6334 125.2578,-122.3716"/>
<polygon fill="none" stroke="#000000" points="125.5655,-118.8843 115.2385,-121.2519 124.7879,-125.841 125.5655,-118.8843"/>
</g>
<!-- \\GPhpThreadLockGuard -->
<g id="node5" class="node">
<title>\\GPhpThreadLockGuard</title>
<polygon fill="none" stroke="#000000" points="371.7625,-106 230.0033,-106 230.0033,-70 371.7625,-70 371.7625,-106"/>
<text text-anchor="middle" x="300.8829" y="-84.7" font-family="Courier,monospace" font-size="11.00" fill="#000000">GPhpThreadLockGuard</text>
</g>
<!-- \\GPhpThreadLockGuard&#45;&gt;\\Serializable -->
<g id="edge3" class="edge">
<title>\\GPhpThreadLockGuard&#45;&gt;\\Serializable</title>
<path fill="none" stroke="#000000" stroke-dasharray="1,5" d="M230.0324,-95.9185C196.9916,-99.6112 157.9,-103.9802 125.4653,-107.6052"/>
<polygon fill="none" stroke="#000000" points="124.7339,-104.165 115.1845,-108.7542 125.5114,-111.1217 124.7339,-104.165"/>
</g>
<!-- \\GPhpThread -->
<g id="node6" class="node">
<title>\\GPhpThread</title>
<polygon fill="none" stroke="#000000" points="348.5699,-52 253.1959,-52 253.1959,-16 348.5699,-16 348.5699,-52"/>
<text text-anchor="start" x="261.2895" y="-37.3" font-family="Courier,monospace" font-size="11.00" fill="#000000">«abstract»</text>
<text text-anchor="start" x="267.8884" y="-24.1" font-family="Courier,monospace" font-size="11.00" fill="#000000">GPhpThread</text>
</g>
</g>
</svg>
